<svg xmlns="http://www.w3.org/2000/svg" viewBox="0 0 464 416">
<g transform="translate(-160,-372)">
<clipPath id="g"><polygon points="0,0 880,0 392,488 392,1400 0,1400"/></clipPath>
<clipPath id="t"><polygon points="880,0 1400,0 1400,1400 392,1400 392,488"/></clipPath>
<path d="M372 382 C345 392 305 440 289 482 C274 516 205 660 168 781 L228 781 Q254 781 262 757 L380 507 Q386 494 392 488 Q398 494 404 507 L522 757 Q530 781 556 781 L616 781 C579 660 510 516 495 482 C479 440 439 392 412 382 C406 374 378 374 372 382 Z" fill="#728871" clip-path="url(#g)"/>
<path d="M372 382 C345 392 305 440 289 482 C274 516 205 660 168 781 L228 781 Q254 781 262 757 L380 507 Q386 494 392 488 Q398 494 404 507 L522 757 Q530 781 556 781 L616 781 C579 660 510 516 495 482 C479 440 439 392 412 382 C406 374 378 374 372 382 Z" fill="#CA7F58" clip-path="url(#t)"/>
<circle cx="392" cy="708" r="44" fill="#CA7F58"/>
</g></svg>